<svg width="20" height="20" viewBox="0 0 20 20" fill="none" xmlns="http://www.w3.org/2000/svg">
  <rect width="20" height="20" rx="10" fill="white"/>
  <path d="M15.723 7.62656L11.873 3.77656C11.7715 3.675 11.6386 3.625 11.5058 3.625C11.373 3.625 11.2402 3.675 11.1386 3.77656L8.62146 6.29531C8.43083 6.27344 8.23865 6.26406 8.04646 6.26406C6.90271 6.26406 5.75896 6.64063 4.8199 7.39375C4.76303 7.43941 4.71642 7.49654 4.68311 7.56141C4.64979 7.62629 4.63051 7.69745 4.62653 7.77027C4.62255 7.84309 4.63396 7.91593 4.66001 7.98405C4.68605 8.05217 4.72616 8.11404 4.77771 8.16563L7.61677 11.0047L4.25115 14.3672C4.2099 14.4082 4.18445 14.4624 4.17927 14.5203L4.12615 15.1016C4.11208 15.2484 4.22927 15.3734 4.37458 15.3734C4.3824 15.3734 4.39021 15.3734 4.39802 15.3719L4.97927 15.3188C5.03708 15.3141 5.09177 15.2875 5.1324 15.2469L8.49802 11.8813L11.3371 14.7203C11.4386 14.8219 11.5715 14.8719 11.7043 14.8719C11.8558 14.8719 12.0058 14.8063 12.109 14.6781C12.9886 13.5797 13.3543 12.2047 13.2058 10.875L15.723 8.35781C15.9246 8.15781 15.9246 7.82969 15.723 7.62656ZM12.409 10.0828L12.0261 10.4656L12.0855 11.0031C12.1786 11.8345 12.0127 12.6743 11.6105 13.4078L6.09333 7.8875C6.2949 7.77656 6.50427 7.68281 6.72302 7.60781C7.14802 7.46094 7.59333 7.3875 8.04646 7.3875C8.19646 7.3875 8.34802 7.39531 8.49802 7.4125L9.03552 7.47188L9.41833 7.08906L11.5074 5L14.4996 7.99219L12.409 10.0828Z" fill="#2F3231"/>
</svg>
