<svg width="32" height="32" viewBox="0 0 32 32" fill="none" xmlns="http://www.w3.org/2000/svg">
  <path opacity="0.3" fill-rule="evenodd" clip-rule="evenodd" d="M10 28C14.9706 28 19 23.9706 19 19C19 14.0294 14.9706 10 10 10C5.02944 10 1 14.0294 1 19C1 20.6205 1.42831 22.1411 2.1779 23.4545L1.28574 24.9998C0.515943 26.3331 1.47819 27.9998 3.01779 27.9998H9.93513C9.95674 27.9999 9.97836 28 10 28Z" fill="#D64133"/>
  <path fill-rule="evenodd" clip-rule="evenodd" d="M26.4869 18.6578L25.97 17.7627L26.4825 16.8651C27.0813 15.8162 27.4241 14.6022 27.4241 13.3027C27.4241 9.32672 24.1999 6.10273 20.2217 6.10273C18.0662 6.10273 16.132 7.0493 14.8121 8.54917C14.1466 8.38854 13.4523 8.30187 12.7383 8.29835C14.3536 5.88884 17.1024 4.30273 20.2217 4.30273C25.1936 4.30273 29.2241 8.33217 29.2241 13.3027C29.2241 14.9234 28.7956 16.4441 28.0457 17.7576L28.9377 19.3023C29.7077 20.6356 28.7455 22.3025 27.2058 22.3025H20.2866L20.2217 22.3027C20.2059 22.3027 20.1902 22.3027 20.1744 22.3026C20.549 21.7437 20.8626 21.1405 21.1057 20.5025H27.2058C27.2583 20.5025 27.2874 20.4902 27.3071 20.4784C27.3315 20.4637 27.3582 20.4386 27.379 20.4025C27.3999 20.3664 27.4083 20.3307 27.4088 20.3023C27.4092 20.2793 27.4053 20.2479 27.379 20.2025L26.4869 18.6578Z" fill="#D64133"/>
  <mask id="path-3-inside-1_27210_84233" fill="white">
    <path fill-rule="evenodd" clip-rule="evenodd" d="M12.8125 26.2441C17.7831 26.2441 21.8125 22.2147 21.8125 17.2441C21.8125 12.2736 17.7831 8.24414 12.8125 8.24414C7.84194 8.24414 3.8125 12.2736 3.8125 17.2441C3.8125 18.8647 4.24081 20.3852 4.9904 21.6986L4.09824 23.2439C3.32844 24.5772 4.29069 26.2439 5.83029 26.2439H12.7476C12.7692 26.2441 12.7909 26.2441 12.8125 26.2441Z"/>
  </mask>
  <path d="M4.9904 21.6986L6.54925 22.5986L7.06587 21.7038L6.55373 20.8065L4.9904 21.6986ZM4.09824 23.2439L5.65709 24.1439L5.65709 24.1439L4.09824 23.2439ZM12.7476 26.2439L12.7603 24.4439H12.7476V26.2439ZM20.0125 17.2441C20.0125 21.2206 16.7889 24.4441 12.8125 24.4441V28.0441C18.7772 28.0441 23.6125 23.2088 23.6125 17.2441H20.0125ZM12.8125 10.0441C16.7889 10.0441 20.0125 13.2677 20.0125 17.2441H23.6125C23.6125 11.2795 18.7772 6.44414 12.8125 6.44414V10.0441ZM5.6125 17.2441C5.6125 13.2677 8.83605 10.0441 12.8125 10.0441V6.44414C6.84782 6.44414 2.0125 11.2795 2.0125 17.2441H5.6125ZM6.55373 20.8065C5.95513 19.7576 5.6125 18.5436 5.6125 17.2441H2.0125C2.0125 19.1858 2.52648 21.0128 3.42708 22.5908L6.55373 20.8065ZM5.65709 24.1439L6.54925 22.5986L3.43156 20.7986L2.5394 22.3439L5.65709 24.1439ZM5.83029 24.4439C5.77781 24.4439 5.7487 24.4316 5.72902 24.4198C5.70462 24.4051 5.67793 24.38 5.65709 24.3439C5.63624 24.3078 5.62783 24.2721 5.62733 24.2437C5.62693 24.2207 5.63085 24.1894 5.65709 24.1439L2.5394 22.3439C1.07678 24.8772 2.90505 28.0439 5.83029 28.0439V24.4439ZM12.7476 24.4439H5.83029V28.0439H12.7476V24.4439ZM12.8125 24.4441C12.7951 24.4441 12.7777 24.4441 12.7603 24.444L12.7349 28.0439C12.7608 28.0441 12.7866 28.0441 12.8125 28.0441V24.4441Z" fill="black" mask="url(#path-3-inside-1_27210_84233)"/>
  <path d="M9 18C9.55228 18 10 17.5523 10 17C10 16.4477 9.55228 16 9 16C8.44772 16 8 16.4477 8 17C8 17.5523 8.44772 18 9 18Z" fill="black"/>
  <path d="M13 18C13.5523 18 14 17.5523 14 17C14 16.4477 13.5523 16 13 16C12.4477 16 12 16.4477 12 17C12 17.5523 12.4477 18 13 18Z" fill="black"/>
  <path d="M17 18C17.5523 18 18 17.5523 18 17C18 16.4477 17.5523 16 17 16C16.4477 16 16 16.4477 16 17C16 17.5523 16.4477 18 17 18Z" fill="black"/>
</svg>
