<svg width="32" height="32" viewBox="0 0 32 32" fill="none" xmlns="http://www.w3.org/2000/svg">
  <path fill-rule="evenodd" clip-rule="evenodd" d="M26.2629 18.6577L25.746 17.7627L26.2585 16.8651C26.8573 15.8162 27.2 14.6022 27.2 13.3027C27.2 9.32672 23.9759 6.10273 19.9977 6.10273C17.8955 6.10273 16.0039 7.003 14.6873 8.43878C14.0832 8.31091 13.4567 8.24365 12.8145 8.24365C12.7255 8.24365 12.6369 8.24494 12.5486 8.24751C14.1684 5.86655 16.9004 4.30273 19.9977 4.30273C24.9696 4.30273 29 8.33217 29 13.3027C29 14.9234 28.5715 16.444 27.8216 17.7576L28.7137 19.3023C29.4837 20.6356 28.5215 22.3025 26.9818 22.3025H20.2592C20.6393 21.7443 20.9582 21.1411 21.2064 20.5025H26.9818C27.0343 20.5025 27.0634 20.4902 27.0831 20.4784C27.1075 20.4637 27.1342 20.4386 27.155 20.4025C27.1758 20.3664 27.1843 20.3307 27.1847 20.3023C27.1852 20.2793 27.1812 20.2479 27.155 20.2025L26.2629 18.6577Z" fill="#BDBDBD"/>
  <mask id="path-2-inside-1_295_2678" fill="white">
    <path fill-rule="evenodd" clip-rule="evenodd" d="M12.8145 26.2437C17.785 26.2437 21.8145 22.2142 21.8145 17.2437C21.8145 12.2731 17.785 8.24365 12.8145 8.24365C7.84389 8.24365 3.81445 12.2731 3.81445 17.2437C3.81445 18.8642 4.24276 20.3847 4.99235 21.6982L4.1002 23.2434C3.3304 24.5768 4.29265 26.2434 5.83225 26.2434H12.7496C12.7712 26.2436 12.7928 26.2437 12.8145 26.2437Z"/>
  </mask>
  <path d="M4.99235 21.6982L6.5512 22.5982L7.06782 21.7033L6.55568 20.806L4.99235 21.6982ZM4.1002 23.2434L5.65904 24.1434L4.1002 23.2434ZM12.7496 26.2434L12.7623 24.4434H12.7496V26.2434ZM20.0145 17.2437C20.0145 21.2201 16.7909 24.4437 12.8145 24.4437V28.0437C18.7791 28.0437 23.6145 23.2083 23.6145 17.2437H20.0145ZM12.8145 10.0437C16.7909 10.0437 20.0145 13.2672 20.0145 17.2437H23.6145C23.6145 11.279 18.7791 6.44365 12.8145 6.44365V10.0437ZM5.61445 17.2437C5.61445 13.2672 8.838 10.0437 12.8145 10.0437V6.44365C6.84978 6.44365 2.01445 11.279 2.01445 17.2437H5.61445ZM6.55568 20.806C5.95709 19.7571 5.61445 18.5431 5.61445 17.2437H2.01445C2.01445 19.1853 2.52844 21.0123 3.42903 22.5904L6.55568 20.806ZM5.65904 24.1434L6.5512 22.5982L3.43351 20.7982L2.54135 22.3434L5.65904 24.1434ZM5.83225 24.4434C5.77976 24.4434 5.75066 24.4311 5.73097 24.4193C5.70657 24.4046 5.67989 24.3795 5.65904 24.3434C5.6382 24.3073 5.62979 24.2717 5.62929 24.2432C5.62889 24.2202 5.6328 24.1889 5.65904 24.1434L2.54135 22.3434C1.07873 24.8768 2.90701 28.0434 5.83225 28.0434V24.4434ZM12.7496 24.4434H5.83225V28.0434H12.7496V24.4434ZM12.8145 24.4437C12.797 24.4437 12.7797 24.4436 12.7623 24.4435L12.7369 28.0434C12.7627 28.0436 12.7886 28.0437 12.8145 28.0437V24.4437Z" fill="#BDBDBD" mask="url(#path-2-inside-1_295_2678)"/>
  <path d="M9 18C9.55228 18 10 17.5523 10 17C10 16.4477 9.55228 16 9 16C8.44772 16 8 16.4477 8 17C8 17.5523 8.44772 18 9 18Z" fill="#BDBDBD"/>
  <path d="M13 18C13.5523 18 14 17.5523 14 17C14 16.4477 13.5523 16 13 16C12.4477 16 12 16.4477 12 17C12 17.5523 12.4477 18 13 18Z" fill="#BDBDBD"/>
  <path d="M17 18C17.5523 18 18 17.5523 18 17C18 16.4477 17.5523 16 17 16C16.4477 16 16 16.4477 16 17C16 17.5523 16.4477 18 17 18Z" fill="#BDBDBD"/>
</svg>
